<svg id="logo">
	<title>shout icon</title>
	<path d="M881.818 359.936c-81.101-188.723-211.558-332.288-277.555-305.51-112.077 45.619 66.765 264.397-483.686 488.090-47.565 19.405-59.597 96.666-39.68 142.95 19.866 46.182 84.89 92.211 132.454 72.909 8.243-3.379 38.451-13.107 38.451-13.107 33.946 45.619 69.478 18.586 82.125 47.514 15.155 34.816 48.077 110.49 59.29 136.192s36.608 49.51 55.040 42.496c18.381-7.014 80.998-30.822 104.96-39.885 23.962-9.114 29.645-30.515 22.323-47.309-7.885-18.176-40.243-23.501-49.51-44.698-9.216-21.094-39.373-88.986-48.026-110.387-11.776-29.082 13.261-52.787 49.664-56.525 250.573-26.214 297.421 128.614 382.72 93.901 65.894-26.88 52.48-218.061-28.57-406.63zM853.606 665.907c-14.694 5.888-113.306-71.782-176.282-218.47-63.027-146.586-55.091-280.576-40.448-286.566 14.643-5.888 110.848 87.91 173.824 234.496 63.027 146.586 57.549 264.55 42.906 270.541z"></path>
</svg>